<svg xmlns="http://www.w3.org/2000/svg" viewBox="0 0 512 512">
  <defs>
    <linearGradient id="bg" x1="0%" y1="0%" x2="100%" y2="100%">
      <stop offset="0%" stop-color="#2E78C4"/>
      <stop offset="50%" stop-color="#185FA5"/>
      <stop offset="100%" stop-color="#0C447C"/>
    </linearGradient>
    <linearGradient id="shine" x1="0%" y1="0%" x2="100%" y2="100%">
      <stop offset="0%" stop-color="rgba(255,255,255,0.18)"/>
      <stop offset="100%" stop-color="rgba(255,255,255,0)"/>
    </linearGradient>
  </defs>
  <!-- Background rounded square -->
  <rect width="512" height="512" rx="110" fill="url(#bg)"/>
  <rect width="512" height="512" rx="110" fill="url(#shine)"/>
  <!-- Invoice icon (scaled to fit) -->
  <!-- Body of invoice with perforated bottom edge -->
  <path
    d="M148 90h184c14 0 26 4 36 14l68 68c10 10 14 22 14 36v210c0 16-14 26-28 18l-36-18-38 20c-6 4-14 4-20 0l-36-20-38 20c-6 4-14 4-20 0l-36-20-38 20c-14 8-28-2-28-18V104c0-16 16-32 36-32z"
    fill="white" fill-opacity="0.95"
  />
  <!-- Corner fold -->
  <path d="M332 90v68c0 8 6 14 14 14h68" fill="none" stroke="#185FA5" stroke-width="4" stroke-linecap="round"/>
  <!-- Lines on invoice -->
  <path d="M180 196h100" stroke="#185FA5" stroke-width="18" stroke-linecap="round"/>
  <path d="M180 256h150" stroke="#185FA5" stroke-width="18" stroke-linecap="round"/>
  <path d="M180 316h80" stroke="#185FA5" stroke-width="18" stroke-linecap="round"/>
</svg>
